<svg width="24" height="24" viewBox="0 0 24 24" xmlns="http://www.w3.org/2000/svg">
    <g fill="none" fill-rule="evenodd">
        <path d="M0 0h24v24H0z"/>
        <path d="M10.395 19.383c.468 0 .835-.188 1.093-.57L18.801 7.53c.187-.281.265-.539.265-.781 0-.64-.468-1.102-1.125-1.102-.453 0-.726.157-1 .594l-6.578 10.406-3.36-4.234c-.265-.32-.538-.469-.929-.469-.664 0-1.14.47-1.14 1.117 0 .282.093.547.336.829l4.039 4.96c.304.368.64.532 1.086.532z" fill="#D33F62" fill-rule="nonzero"/>
    </g>
</svg>
